<svg xmlns="http://www.w3.org/2000/svg"><symbol fill="none" id="sprite-br-icon" viewBox="0 0 7 12"><path d="m1 11 5-5-5-5" stroke="#484848"/></symbol><symbol id="sprite-close" viewBox="0 0 10 10"><path fill-rule="evenodd" clip-rule="evenodd" d="M10 .91 9.09 0 5 4.09.91 0 0 .91 4.091 5 0 9.09l.91.91L5 5.909 9.091 10l.91-.91L5.908 5 10 .91z"/></symbol><symbol fill-rule="evenodd" clip-rule="evenodd" id="sprite-location" viewBox="0 0 24 24"><path d="M12 10a2 2 0 1 1 .001-4.001A2 2 0 0 1 12 10m0-5a3 3 0 1 0 0 6 3 3 0 0 0 0-6M5 7.602C5 4.085 8.271 1 12 1s7 3.085 7 6.602c0 3.455-2.563 7.543-7 14.527-4.489-7.073-7-11.072-7-14.527M12 0C7.802 0 4 3.403 4 7.602 4 11.8 7.469 16.812 12 24c4.531-7.188 8-12.2 8-16.398C20 3.403 16.199 0 12 0"/></symbol><symbol id="sprite-lock" viewBox="0 0 10 12"><path d="M8.429 4h-.572V2.857A2.83 2.83 0 0 0 5 0a2.83 2.83 0 0 0-2.857 2.857V4H1.57C.943 4 .43 4.514.43 5.143v5.714A1.144 1.144 0 0 0 1.57 12h6.86c.628 0 1.142-.514 1.142-1.143V5.143A1.147 1.147 0 0 0 8.43 4zM5 9.143A1.146 1.146 0 0 1 3.857 8c0-.629.514-1.143 1.143-1.143S6.143 7.371 6.143 8 5.629 9.143 5 9.143zM6.771 4H3.23V2.857c0-.971.8-1.771 1.771-1.771.971 0 1.771.8 1.771 1.771V4z"/></symbol><symbol style="enable-background:new 0 0 489.9 489.9" id="sprite-logout" viewBox="0 0 489.9 489.9"><path d="m468.3 255.8.2-.2c.3-.4.6-.7.8-1.1.1-.1.1-.2.2-.3.2-.4.5-.8.7-1.2 0-.1.1-.2.1-.2.2-.4.4-.8.6-1.3 0-.1 0-.1.1-.2.2-.4.3-.9.5-1.4 0-.1 0-.2.1-.2.1-.5.3-.9.3-1.4 0-.2 0-.3.1-.5.1-.4.1-.8.2-1.2.1-.6.1-1.1.1-1.7 0-.6 0-1.1-.1-1.7 0-.4-.1-.8-.2-1.2 0-.2 0-.3-.1-.5-.1-.5-.2-.9-.3-1.4 0-.1 0-.2-.1-.2-.1-.5-.3-.9-.5-1.4 0-.1 0-.1-.1-.2-.2-.4-.4-.9-.6-1.3 0-.1-.1-.2-.1-.2-.2-.4-.4-.8-.7-1.2-.1-.1-.1-.2-.2-.3-.3-.4-.5-.8-.8-1.1l-.2-.2c-.4-.4-.7-.9-1.2-1.3l-98.9-98.8c-6.7-6.7-17.6-6.7-24.3 0-6.7 6.7-6.7 17.6 0 24.3l69.6 69.6H136.8c-9.5 0-17.2 7.7-17.2 17.1 0 9.5 7.7 17.2 17.2 17.2h276.8l-69.1 69.1c-6.7 6.7-6.7 17.6 0 24.3 3.3 3.3 7.7 5 12.1 5s8.8-1.7 12.1-5l98.3-98.3c.5-.6.9-1 1.3-1.4z"/><path d="M110.7 34.3h128c9.5 0 17.2-7.7 17.2-17.1 0-9.5-7.7-17.2-17.2-17.2h-128C59.4 0 17.6 41.8 17.6 93.1v303.7c0 51.3 41.8 93.1 93.1 93.1h125.9c9.5 0 17.2-7.7 17.2-17.1 0-9.5-7.7-17.2-17.2-17.2H110.7c-32.4 0-58.8-26.4-58.8-58.8V93.1c.1-32.5 26.4-58.8 58.8-58.8z"/></symbol><symbol id="sprite-phone-volume" viewBox="0 0 512 512"><path d="m462.49 468.206-33.937 33.937c-6.063 6.031-23.812 9.843-24.343 9.843-107.435.906-210.869-41.279-286.883-117.309C41.096 318.46-1.137 214.619.035 106.872c0-.063 3.891-17.312 9.938-23.312L43.91 49.592c12.453-12.437 36.295-18.062 52.998-12.5l7.156 2.406c16.703 5.562 34.155 23.999 38.78 40.967l17.093 62.717c4.64 17-1.594 41.186-14.031 53.623l-22.687 22.687c22.25 82.467 86.919 147.122 169.339 169.402l22.687-22.687c12.438-12.438 36.687-18.656 53.687-14.031l62.717 17.125c16.937 4.594 35.374 22.03 40.968 38.748l2.375 7.156c5.56 16.721-.064 40.564-12.502 53.001zM287.995 255.993h31.999c0-35.343-28.655-63.998-63.998-63.998v31.999c17.64 0 31.999 14.374 31.999 31.999zm127.996 0c0-88.373-71.623-159.996-159.995-159.996v32c70.592 0 127.996 57.436 127.996 127.996h31.999zM255.996 0v31.999c123.496 0 223.993 100.497 223.993 223.994h31.999C511.988 114.622 397.367 0 255.996 0z"/></symbol><symbol style="enable-background:new 0 0 349.325 349.324" id="sprite-phone" viewBox="0 0 349.325 349.324"><path d="M18.451 33.056C-8.6 73.651-6.972 151.824 42.83 207.313c46.215 51.491 115.158 108.634 115.735 109.101 1.478 1.341 36.774 32.91 88.89 32.91 5.043 0 10.161-.31 15.214-.919 56.533-6.83 77.256-43.071 84.579-64.059 3.782-10.801-2.585-24.196-13.914-29.254L266.985 225.6c-3.184-1.411-6.992-2.158-11.015-2.158-8.2 0-16.432 3.042-21.47 7.937l-20.911 20.262c-3.107 3.011-8.627 5.032-13.746 5.032-2.188 0-4.118-.386-5.57-1.122-14.116-7.079-36.3-21.211-61.857-48.307-22.681-24.07-33.456-40.568-38.506-50.173-2.821-5.373.127-14.678 4.552-19.096l18.603-18.596c7.734-7.734 11.217-21.962 7.924-32.39L104.07 20.556C100.887 10.453 90.149 0 77.629 0 60.288.584 35.942 6.795 18.451 33.056zm59.841-21.214c5.979.025 12.688 6.614 14.472 12.279l20.921 66.43c1.976 6.249-.366 15.8-5.001 20.444l-18.606 18.59c-7.599 7.6-12.093 22.673-6.66 32.989 5.39 10.248 16.765 27.729 40.37 52.783 26.743 28.351 50.196 43.259 65.158 50.77 3.067 1.544 6.846 2.356 10.903 2.356 8.231 0 16.655-3.199 21.978-8.358l20.91-20.256c4.164-4.037 14.062-5.825 19.419-3.453l66.354 29.492c5.058 2.25 9.45 9.075 7.551 14.508-6.413 18.393-24.663 50.15-74.804 56.214-4.58.553-9.221.827-13.802.827-46.996 0-79.704-28.741-81.133-30.011-.67-.554-69.292-57.498-114.676-108.06C7.081 149.737 3.598 76.686 28.302 39.619c14.7-22.057 35.289-27.279 49.99-27.777z"/></symbol><symbol fill="none" id="sprite-sa-fb" viewBox="0 0 40 40"><path d="M20 40c11.046 0 20-8.954 20-20S31.046 0 20 0 0 8.954 0 20s8.954 20 20 20z" fill="#3B5998"/><path d="M25.028 20.783h-3.569v13.074h-5.407V20.783H13.48v-4.595h2.572v-2.973c0-2.127 1.01-5.456 5.455-5.456l4.005.017v4.46h-2.906c-.476 0-1.147.238-1.147 1.252v2.704H25.5l-.472 4.59z" fill="#fff"/></symbol><symbol fill="none" id="sprite-sa-google" viewBox="0 0 40 40"><g clip-path="url(#a)"><path d="M38.49 16.522H22.175c-.72 0-1.305.583-1.305 1.304v5.212c0 .72.584 1.304 1.304 1.304h9.189a12.266 12.266 0 0 1-5.28 6.187L30 37.311c6.284-3.634 10-10.012 10-17.15 0-1.017-.075-1.744-.225-2.562a1.31 1.31 0 0 0-1.286-1.077z" fill="#167EE6"/><path d="M20 32.174c-4.496 0-8.422-2.457-10.53-6.092l-6.782 3.909C6.14 35.972 12.605 40 20 40a19.97 19.97 0 0 0 10-2.68v-.01l-3.918-6.781A12.083 12.083 0 0 1 20 32.174z" fill="#12B347"/><path d="M30 37.32v-.009l-3.918-6.782A12.084 12.084 0 0 1 20 32.174V40a19.96 19.96 0 0 0 10-2.68z" fill="#0F993E"/><path d="M7.826 20c0-2.217.605-4.29 1.644-6.082l-6.782-3.91A19.793 19.793 0 0 0 0 20c0 3.637.977 7.05 2.688 9.99l6.782-3.909A12.084 12.084 0 0 1 7.826 20z" fill="#FFD500"/><path d="M20 7.826c2.932 0 5.625 1.042 7.73 2.775a1.3 1.3 0 0 0 1.748-.079L33.17 6.83c.54-.54.5-1.422-.075-1.922C29.57 1.85 24.985 0 20 0 12.605 0 6.14 4.028 2.688 10.01l6.782 3.908c2.108-3.635 6.034-6.092 10.53-6.092z" fill="#FF4B26"/><path d="M27.73 10.601a1.3 1.3 0 0 0 1.748-.079L33.17 6.83c.539-.54.5-1.422-.075-1.922C29.57 1.85 24.985 0 20 0v7.826c2.932 0 5.625 1.042 7.73 2.775z" fill="#D93F21"/></g><defs><clipPath id="a"><path fill="#fff" d="M0 0h40v40H0z"/></clipPath></defs></symbol><symbol fill="none" id="sprite-sa-vk" viewBox="0 0 40 40"><path d="M20 40c11.046 0 20-8.954 20-20S31.046 0 20 0 0 8.954 0 20s8.954 20 20 20z" fill="#4D76A1"/><path fill-rule="evenodd" clip-rule="evenodd" d="M19.244 28.772h1.57s.474-.052.716-.313c.223-.24.216-.69.216-.69s-.03-2.106.947-2.416c.963-.306 2.201 2.035 3.513 2.935.992.682 1.745.532 1.745.532l3.507-.048s1.835-.113.965-1.556c-.071-.118-.507-1.067-2.608-3.017-2.199-2.041-1.904-1.711.745-5.242 1.613-2.15 2.258-3.463 2.057-4.025-.193-.535-1.38-.394-1.38-.394l-3.948.025s-.293-.04-.51.09c-.212.127-.348.424-.348.424s-.625 1.664-1.459 3.079c-1.758 2.985-2.461 3.143-2.749 2.958-.668-.433-.501-1.736-.501-2.663 0-2.893.439-4.1-.855-4.412-.43-.104-.745-.172-1.843-.183-1.409-.015-2.601.004-3.277.335-.449.22-.795.71-.584.738.26.035.852.16 1.165.586.405.551.39 1.787.39 1.787s.233 3.407-.542 3.83c-.533.29-1.263-.303-2.83-3.011a25.166 25.166 0 0 1-1.41-2.922s-.117-.286-.325-.44c-.254-.185-.607-.245-.607-.245l-3.753.025s-.563.016-.77.26c-.184.219-.014.67-.014.67s2.937 6.872 6.264 10.336c3.05 3.175 6.513 2.967 6.513 2.967z" fill="#fff"/></symbol></svg>