<svg width="10" height="12" viewBox="0 0 10 12" xmlns="http://www.w3.org/2000/svg">
<path d="M8.42859 4H7.85716V2.85714C7.85716 1.25714 6.60002 0 5.00002 0C3.40002 0 2.14287 1.25714 2.14287 2.85714V4H1.57145C0.942875 4 0.428589 4.51429 0.428589 5.14286V10.8571C0.428589 11.4857 0.942875 12 1.57145 12H8.42859C9.05716 12 9.57145 11.4857 9.57145 10.8571V5.14286C9.57145 4.51429 9.05716 4 8.42859 4ZM5.00002 9.14286C4.37145 9.14286 3.85716 8.62857 3.85716 8C3.85716 7.37143 4.37145 6.85714 5.00002 6.85714C5.62859 6.85714 6.14287 7.37143 6.14287 8C6.14287 8.62857 5.62859 9.14286 5.00002 9.14286ZM6.77145 4H3.22859V2.85714C3.22859 1.88571 4.02859 1.08571 5.00002 1.08571C5.97145 1.08571 6.77145 1.88571 6.77145 2.85714V4Z" />
</svg>
