<svg width="40" height="40" viewBox="0 0 40 40" fill="none" xmlns="http://www.w3.org/2000/svg">
<g clip-path="url(#clip0)">
<path d="M38.4902 16.5223L22.1746 16.5215C21.4541 16.5215 20.8701 17.1054 20.8701 17.8259V23.038C20.8701 23.7583 21.4541 24.3423 22.1745 24.3423H31.3625C30.3564 26.9534 28.4786 29.14 26.0828 30.5294L30.0005 37.3113C36.285 33.6767 40.0005 27.2995 40.0005 20.1605C40.0005 19.1441 39.9256 18.4174 39.7757 17.5992C39.6618 16.9776 39.1221 16.5223 38.4902 16.5223Z" fill="#167EE6"/>
<path d="M20.0001 32.1741C15.5037 32.1741 11.5784 29.7174 9.47019 26.082L2.68848 29.9909C6.13965 35.9723 12.6048 40.0002 20.0001 40.0002C23.628 40.0002 27.0512 39.0234 30.0001 37.3212V37.3119L26.0824 30.5298C24.2903 31.5692 22.2166 32.1741 20.0001 32.1741Z" fill="#12B347"/>
<path d="M30 37.3206V37.3113L26.0823 30.5293C24.2902 31.5686 22.2166 32.1736 20 32.1736V39.9997C23.6279 39.9997 27.0512 39.0229 30 37.3206Z" fill="#0F993E"/>
<path d="M7.82609 19.9995C7.82609 17.7832 8.43094 15.7096 9.47008 13.9177L2.68836 10.0088C0.976719 12.9484 0 16.3623 0 19.9995C0 23.6367 0.976719 27.0506 2.68836 29.9902L9.47008 26.0813C8.43094 24.2893 7.82609 22.2158 7.82609 19.9995Z" fill="#FFD500"/>
<path d="M20.0001 7.82609C22.9322 7.82609 25.6255 8.86797 27.7292 10.601C28.2482 11.0285 29.0025 10.9977 29.4779 10.5223L33.1708 6.8293C33.7102 6.28992 33.6718 5.40703 33.0956 4.90719C29.571 1.84945 24.985 0 20.0001 0C12.6048 0 6.13965 4.02789 2.68848 10.0093L9.4702 13.9182C11.5784 10.2828 15.5037 7.82609 20.0001 7.82609Z" fill="#FF4B26"/>
<path d="M27.7291 10.601C28.2481 11.0285 29.0024 10.9977 29.4777 10.5223L33.1707 6.8293C33.71 6.28992 33.6716 5.40703 33.0955 4.90719C29.5709 1.84938 24.9849 0 20 0V7.82609C22.932 7.82609 25.6254 8.86797 27.7291 10.601Z" fill="#D93F21"/>
</g>
<defs>
<clipPath id="clip0">
<rect width="40" height="40" fill="white"/>
</clipPath>
</defs>
</svg>
