<svg width="40" height="40" viewBox="0 0 40 40" fill="none" xmlns="http://www.w3.org/2000/svg">
<path d="M20 40C31.0457 40 40 31.0457 40 20C40 8.95431 31.0457 0 20 0C8.95431 0 0 8.95431 0 20C0 31.0457 8.95431 40 20 40Z" fill="#4D76A1"/>
<path fill-rule="evenodd" clip-rule="evenodd" d="M19.2443 28.7716H20.814C20.814 28.7716 21.2882 28.7196 21.5303 28.4586C21.7531 28.219 21.746 27.7691 21.746 27.7691C21.746 27.7691 21.7153 25.6628 22.6929 25.3526C23.6565 25.0471 24.894 27.3883 26.2057 28.2885C27.1975 28.9699 27.9512 28.8205 27.9512 28.8205L31.4582 28.7716C31.4582 28.7716 33.2929 28.6586 32.423 27.2161C32.3517 27.0981 31.9164 26.1491 29.8154 24.1989C27.6164 22.1578 27.9109 22.488 30.5598 18.9574C32.1731 16.8072 32.818 15.4945 32.6166 14.9323C32.4244 14.3968 31.2379 14.5383 31.2379 14.5383L27.2891 14.5629C27.2891 14.5629 26.9964 14.523 26.7793 14.6528C26.5672 14.78 26.4306 15.0767 26.4306 15.0767C26.4306 15.0767 25.8056 16.7405 24.9721 18.1556C23.2137 21.1414 22.5107 21.299 22.2233 21.1136C21.5549 20.6815 21.7217 19.3777 21.7217 18.4515C21.7217 15.558 22.1606 14.3515 20.8671 14.0392C20.4379 13.9354 20.122 13.867 19.0243 13.8559C17.6153 13.8413 16.4228 13.8602 15.7475 14.1911C15.2983 14.411 14.9518 14.9013 15.1628 14.9294C15.4238 14.9644 16.0149 15.0888 16.3283 15.5155C16.7329 16.066 16.7187 17.3024 16.7187 17.3024C16.7187 17.3024 16.9511 20.7086 16.1757 21.1318C15.6434 21.422 14.9133 20.8295 13.3457 18.1206C12.5424 16.7331 11.936 15.1993 11.936 15.1993C11.936 15.1993 11.819 14.9127 11.6105 14.7594C11.3574 14.5736 11.0037 14.5144 11.0037 14.5144L7.25132 14.539C7.25132 14.539 6.68802 14.5547 6.48124 14.7996C6.29728 15.0175 6.46662 15.4681 6.46662 15.4681C6.46662 15.4681 9.40434 22.3411 12.7307 25.8047C15.7807 28.9802 19.2443 28.7716 19.2443 28.7716Z" fill="white"/>
</svg>
